<svg xmlns="http://www.w3.org/2000/svg" viewBox="0 0 100 100">
  <defs>
    <linearGradient id="bg" x1="0%" y1="0%" x2="100%" y2="100%">
      <stop offset="0%" stop-color="#6366F1" />
      <stop offset="100%" stop-color="#8B5CF6" />
    </linearGradient>
  </defs>

  <rect width="100" height="100" rx="22" fill="url(#bg)" />

  <path d="M50 30 C50 30 32 32 28 38 L28 68 C32 62 50 62 50 62 Z" fill="white" opacity="0.95" />
  <path d="M50 30 C50 30 68 32 72 38 L72 68 C68 62 50 62 50 62 Z" fill="white" opacity="0.85" />

  <line x1="50" y1="30" x2="50" y2="62" stroke="white" stroke-width="1.5" opacity="0.6" />

  <g transform="translate(67, 26)">
    <path d="M0,-6 L1.5,-1.5 L6,0 L1.5,1.5 L0,6 L-1.5,1.5 L-6,0 L-1.5,-1.5 Z" fill="white" opacity="0.9" />
  </g>

  <circle cx="36" cy="45" r="1.5" fill="white" opacity="0.5" />
  <circle cx="36" cy="51" r="1.5" fill="white" opacity="0.5" />
  <circle cx="36" cy="57" r="1.5" fill="white" opacity="0.5" />
</svg>
